<mxfile host="65bd71144e">
    <diagram id="MjDF3HY3xdgteAHnQF00" name="Page-2">
        <mxGraphModel dx="1244" dy="714" grid="1" gridSize="10" guides="1" tooltips="1" connect="1" arrows="1" fold="1" page="1" pageScale="1" pageWidth="850" pageHeight="1100" math="0" shadow="0">
            <root>
                <mxCell id="0"/>
                <mxCell id="1" parent="0"/>
                <mxCell id="CIvyurHvsJHIPZn1b4cG-3" value="" style="edgeStyle=none;html=1;" parent="1" source="CIvyurHvsJHIPZn1b4cG-1" target="CIvyurHvsJHIPZn1b4cG-2" edge="1">
                    <mxGeometry relative="1" as="geometry"/>
                </mxCell>
                <mxCell id="CIvyurHvsJHIPZn1b4cG-5" value="" style="edgeStyle=none;html=1;" parent="1" source="CIvyurHvsJHIPZn1b4cG-1" target="CIvyurHvsJHIPZn1b4cG-4" edge="1">
                    <mxGeometry relative="1" as="geometry"/>
                </mxCell>
                <mxCell id="CIvyurHvsJHIPZn1b4cG-1" value="AppComponent" style="rounded=0;whiteSpace=wrap;html=1;" parent="1" vertex="1">
                    <mxGeometry x="230" y="60" width="300" height="60" as="geometry"/>
                </mxCell>
                <mxCell id="CIvyurHvsJHIPZn1b4cG-2" value="About" style="whiteSpace=wrap;html=1;rounded=0;" parent="1" vertex="1">
                    <mxGeometry x="120" y="210" width="200" height="60" as="geometry"/>
                </mxCell>
                <mxCell id="CIvyurHvsJHIPZn1b4cG-7" value="" style="edgeStyle=none;html=1;" parent="1" source="CIvyurHvsJHIPZn1b4cG-4" target="CIvyurHvsJHIPZn1b4cG-6" edge="1">
                    <mxGeometry relative="1" as="geometry"/>
                </mxCell>
                <mxCell id="CIvyurHvsJHIPZn1b4cG-9" value="" style="edgeStyle=none;html=1;" parent="1" source="CIvyurHvsJHIPZn1b4cG-4" target="CIvyurHvsJHIPZn1b4cG-8" edge="1">
                    <mxGeometry relative="1" as="geometry"/>
                </mxCell>
                <mxCell id="CIvyurHvsJHIPZn1b4cG-11" value="" style="edgeStyle=none;html=1;" parent="1" source="CIvyurHvsJHIPZn1b4cG-4" target="CIvyurHvsJHIPZn1b4cG-10" edge="1">
                    <mxGeometry relative="1" as="geometry"/>
                </mxCell>
                <mxCell id="CIvyurHvsJHIPZn1b4cG-4" value="Features" style="whiteSpace=wrap;html=1;rounded=0;" parent="1" vertex="1">
                    <mxGeometry x="425" y="210" width="175" height="70" as="geometry"/>
                </mxCell>
                <mxCell id="CIvyurHvsJHIPZn1b4cG-6" value="Feature" style="whiteSpace=wrap;html=1;rounded=0;" parent="1" vertex="1">
                    <mxGeometry x="350" y="340" width="120" height="40" as="geometry"/>
                </mxCell>
                <mxCell id="CIvyurHvsJHIPZn1b4cG-8" value="Feature" style="whiteSpace=wrap;html=1;rounded=0;" parent="1" vertex="1">
                    <mxGeometry x="600" y="340" width="120" height="40" as="geometry"/>
                </mxCell>
                <mxCell id="CIvyurHvsJHIPZn1b4cG-10" value="Feature" style="rounded=0;whiteSpace=wrap;html=1;" parent="1" vertex="1">
                    <mxGeometry x="452.5" y="410" width="137.5" height="40" as="geometry"/>
                </mxCell>
            </root>
        </mxGraphModel>
    </diagram>
</mxfile>